<?xml version="1.0" standalone="no"?>
<!DOCTYPE svg PUBLIC "-//W3C//DTD SVG 20010904//EN"
 "http://www.w3.org/TR/2001/REC-SVG-20010904/DTD/svg10.dtd">
<svg version="1.0" xmlns="http://www.w3.org/2000/svg"
 width="654.000000pt" height="551.000000pt" viewBox="0 0 654.000000 551.000000"
 preserveAspectRatio="xMidYMid meet">
<metadata>
Created by potrace 1.16, written by Peter Selinger 2001-2019
</metadata>
<g transform="translate(0.000000,551.000000) scale(0.100000,-0.100000)"
fill="#000000" stroke="none">
<path d="M2770 5420 c-127 -15 -284 -76 -409 -159 -142 -93 -287 -277 -348
-441 -46 -123 -58 -190 -58 -340 0 -164 15 -243 70 -375 45 -105 164 -272 245
-341 55 -47 77 -68 135 -122 168 -158 208 -195 303 -282 119 -109 135 -119
180 -120 55 0 64 6 282 210 69 64 176 163 238 220 62 57 118 112 123 121 5 10
9 36 9 59 0 34 -6 48 -34 76 -28 28 -41 34 -78 34 -37 0 -54 -7 -102 -45 -191
-148 -464 -186 -687 -95 -96 39 -150 72 -220 138 -165 152 -248 380 -220 602
11 88 42 195 69 240 142 235 295 342 539 378 91 14 110 14 195 0 157 -27 277
-84 378 -182 204 -197 267 -425 161 -581 -27 -40 -123 -115 -148 -115 -10 0
-13 23 -13 100 l0 100 -235 0 -235 0 0 -225 c0 -124 0 -228 0 -232 0 -13 399
-15 465 -3 141 27 319 155 378 272 73 145 89 328 41 480 -66 209 -234 410
-434 516 -191 102 -373 137 -590 112z"/>
<path d="M3100 2991 c-159 -43 -265 -123 -326 -246 -61 -123 -59 -280 4 -398
33 -61 121 -144 195 -182 63 -33 63 -32 13 -108 -54 -83 -386 -619 -386 -623
0 -3 72 -3 161 -2 l160 3 193 335 192 335 97 3 97 3 0 -341 0 -340 140 0 140
0 0 210 0 211 58 -3 57 -3 5 -210 5 -210 80 0 80 0 3 213 2 212 350 0 350 0 5
-27 c28 -138 58 -203 122 -265 75 -73 209 -105 324 -78 70 16 103 33 162 82
l47 39 0 -55 0 -56 125 0 125 0 0 500 0 500 -124 0 -124 0 -5 -287 c-5 -307
-11 -351 -60 -424 -66 -98 -226 -119 -299 -39 -47 51 -51 82 -55 428 l-5 322
-119 0 -119 0 0 -245 c0 -135 -3 -245 -7 -245 -5 0 -40 46 -80 103 -63 89
-445 630 -579 820 l-48 67 -78 0 -78 0 0 -495 0 -495 -60 0 -60 0 0 505 0 505
-307 -1 c-260 -1 -318 -4 -373 -18z m400 -441 l0 -210 -142 0 c-79 0 -162 5
-186 10 -104 24 -162 94 -162 195 0 84 33 141 105 178 64 32 82 35 238 36
l147 1 0 -210z m707 -15 c237 -336 359 -510 367 -522 6 -10 -47 -13 -248 -13
l-256 0 0 362 c0 199 4 358 8 353 5 -6 63 -86 129 -180z"/>
<path d="M1843 2486 c-177 -43 -307 -187 -349 -387 -20 -94 -13 -247 15 -340
25 -78 82 -170 139 -221 172 -154 506 -150 666 9 51 51 99 121 91 133 -4 6
-38 33 -77 60 l-71 50 -58 -64 c-37 -40 -74 -70 -101 -81 -51 -20 -157 -22
-219 -4 -61 19 -121 81 -148 152 -39 107 -74 97 343 97 422 0 383 -13 371 119
-23 264 -150 437 -353 480 -68 14 -183 13 -249 -3z m272 -215 c59 -33 115
-122 115 -182 0 -18 -14 -19 -255 -19 -293 0 -277 -7 -225 97 31 62 78 105
136 123 16 5 65 8 109 7 61 -3 90 -9 120 -26z"/>
<path d="M40 2476 c0 -4 14 -45 137 -401 30 -88 72 -212 94 -275 22 -63 58
-169 82 -235 l42 -120 124 0 124 0 66 197 c36 108 69 199 72 203 3 3 25 -50
49 -117 24 -68 56 -160 73 -206 l29 -83 126 3 125 3 44 130 c173 504 303 889
303 896 0 6 -55 8 -127 7 l-128 -3 -112 -364 c-62 -200 -115 -366 -118 -369
-3 -3 -7 -3 -9 -1 -6 7 -236 716 -236 728 0 7 -38 11 -115 11 -63 0 -115 -3
-115 -6 0 -3 24 -75 54 -159 l54 -154 -70 -212 c-44 -133 -74 -207 -78 -198
-9 15 -69 206 -164 519 l-62 205 -132 3 c-73 1 -132 1 -132 -2z"/>
<path d="M2599 2047 c-48 -37 -52 -105 -9 -149 28 -27 36 -30 73 -25 82 11
114 93 61 156 -21 26 -33 31 -67 31 -23 0 -49 -6 -58 -13z"/>
</g>
</svg>
